<svg xmlns="http://www.w3.org/2000/svg" width="3592.99" height="1188.26" viewBox="0 0 3592.99 1188.26"><title>PawlingDemWithText</title><path d="M991.29,1037.28c-3.35,48.74-46.51,81.86-61.77,104.18A47.62,47.62,0,0,0,953.34,1185l82.23-7.07c24.81-26.34,59.91-76.28,65.86-96.37s9.3-131.72,20.65-155.35,10.23-63.07,6.7-78.7-16.19-28.28-25.12-50.23-11.53-109.77,3.35-107.17l21.74,28.47c-16.19,44.09,8.37,60.84,28.46,72s28.28,79.44,44.28,86,16.38-49.48,21-79.25c2.1-36.09-9.49-71.81-31.82-83.72-25.3-11.54-33.49-5-33.49-5s-29.76-35.17-41.86-73.68c83.33-266.4-81.9-349.66-143.86-360s-127.39,8.35-127.39,8.35c-199.12,96.15-245.32,88.41-375,28.42C378.39,223.24,281.57,182.38,229.62,166c0,0,1-148.66-13.4-165.76-26.93-8.07-74.69,175.85-74.69,175.85S85.38,131.58,63.85,18.66C6,36.66,11.15,200,62.18,243.86c0,0-34.33,49.4-21.77,127.26-87.91,151.54-5,176.65-5,176.65h80.34L194.45,490c149,24.28,200.09,457.12,139,491.44-13.88,37-5.72,77.73-5.72,77.73s-44,55.13-41.18,101.46c.28,47,126.7,19.81,126.7,19.81l6.06-70.61,47.24,37.68,74.51-80.65c-170.23-158-21.77-310-21.77-310,111.35,7.54,221-31.53,221-31.53,80.56,95.07,71.63,149,62,197.58-38.7,47.44-78.14,108.47-116.09,171.35-41.74,69.15,89.3,62.88,98.6,34.23,40.19-83.35,54.33-93.39,71.07-103.44s16.74-40.19,16.74-40.19c-12.28-55.81,18.92-78.77,33.49-88.74l31.82-21.77c28.09-40.93,22.51-78.14,11.72-93.77-12.28-18.6,0-25.11,0-25.11,13-1.68,30.51,44.84,51.9,100.46C1011.37,912.28,1005.06,994.49,991.29,1037.28Z" transform="translate(0 0)"/><path d="M1424.89,255V45h90.9q28.2,0,48.6,9.15t31.5,26.25q11.1,17.1,11.1,40.5,0,23.7-11.1,40.65t-31.5,26.25q-20.4,9.3-48.6,9.3h-64.2l22.2-21.9V255Zm48.9-74.4-22.2-23.1h61.5q22.2,0,33.6-9.6t11.4-27q0-17.4-11.4-26.85t-33.6-9.45h-61.5l22.2-23.1Z" transform="translate(0 0)"/><path d="M1619.89,255l93.3-210h48l94.2,210h-51l-77.1-185.4h19.5L1669.69,255Zm47.1-45,12.3-36.9h108.6l12.6,36.9Z" transform="translate(0 0)"/><path d="M1931,255,1862,45h50.4l59.7,186h-25.2l62.4-186h45l60,186H2090l61.2-186h46.5l-69,210h-51.6l-53.4-163.2h13.8L1982.89,255Z" transform="translate(0 0)"/><path d="M2232.19,255V45h48.89V215.4h104.7V255Z" transform="translate(0 0)"/><path d="M2416.38,255V45h48.9V255Z" transform="translate(0 0)"/><path d="M2517.78,255V45H2558l123.9,151.2h-19.5V45h48V255h-40.2l-123.9-151.2h19.5V255Z" transform="translate(0 0)"/><path d="M2864.58,258.6a128.78,128.78,0,0,1-45.9-8,104.54,104.54,0,0,1-60.15-57.15A108.57,108.57,0,0,1,2750,150a108.57,108.57,0,0,1,8.55-43.5A103,103,0,0,1,2782.68,72a108.9,108.9,0,0,1,36.6-22.65q21-8,46.2-8,27.9,0,50.25,9.3a99.59,99.59,0,0,1,37.65,27l-30.9,28.8a77.4,77.4,0,0,0-25.2-18.15,73.91,73.91,0,0,0-29.7-5.85,74.81,74.81,0,0,0-27.6,5,64,64,0,0,0-21.75,14,61.8,61.8,0,0,0-14.1,21.3,72.51,72.51,0,0,0-5,27.3,72,72,0,0,0,5,26.85,61.49,61.49,0,0,0,14.1,21.45,66.25,66.25,0,0,0,21.6,14.1,71.68,71.68,0,0,0,27.45,5.1,80.72,80.72,0,0,0,54.6-20.7l27.6,35.1a124.57,124.57,0,0,1-39.9,19.95A155.91,155.91,0,0,1,2864.58,258.6Zm40.5-33V146.7h44.4v85.2Z" transform="translate(0 0)"/><path d="M1424.89,575V365h95.4q34.2,0,60.3,13.05t40.8,36.6q14.7,23.55,14.7,55.35t-14.7,55.35q-14.7,23.55-40.8,36.6t-60.3,13Zm48.9-39.6h44.1q21,0,36.45-7.95a57.39,57.39,0,0,0,24-22.8q8.55-14.85,8.55-34.65,0-20.1-8.55-34.8a57.66,57.66,0,0,0-24-22.65q-15.45-7.95-36.45-7.95h-44.1Z" transform="translate(0 0)"/><path d="M1724,536h114.3v39h-162.6V365h158.7v39H1724Zm-3.6-86.7h101.1v38.1h-101.1Z" transform="translate(0 0)"/><path d="M1880,575V365h40.19l89.4,148.2h-21.3l87.6-148.2h40.5V575h-45.3l-.59-140.1h9l-70.81,117.6h-21.6l-71.7-117.6h9.9V575Z" transform="translate(0 0)"/><path d="M2271.18,578.6a125.65,125.65,0,0,1-45.6-8.1,111,111,0,0,1-36.6-22.8,103,103,0,0,1-24.15-34.5,107.81,107.81,0,0,1-8.55-43.2q0-23.7,8.55-43.35A103.42,103.42,0,0,1,2189,392.3a111.33,111.33,0,0,1,36.45-22.8q20.85-8.1,45.75-8.1t45.75,8A109.33,109.33,0,0,1,2353.38,392a103,103,0,0,1,24.15,34.5,114.55,114.55,0,0,1,0,86.85A102.62,102.62,0,0,1,2353.38,548a109.33,109.33,0,0,1-36.45,22.65A127.64,127.64,0,0,1,2271.18,578.6Zm0-41.1a66.66,66.66,0,0,0,26-5,63,63,0,0,0,20.85-14.1,65,65,0,0,0,13.95-21.3,76.93,76.93,0,0,0,0-54.3,65,65,0,0,0-13.95-21.3,63,63,0,0,0-20.85-14.1,66.66,66.66,0,0,0-26-4.95,67.78,67.78,0,0,0-26.1,4.95,61.06,61.06,0,0,0-20.85,14.1,66.28,66.28,0,0,0-13.8,21.3,76.93,76.93,0,0,0,0,54.3,66.28,66.28,0,0,0,13.8,21.3,61.06,61.06,0,0,0,20.85,14.1A67.78,67.78,0,0,0,2271.18,537.5Z" transform="translate(0 0)"/><path d="M2526.18,578.6a125.9,125.9,0,0,1-45.15-8,104.85,104.85,0,0,1-60-57.15,114.93,114.93,0,0,1,0-87,104,104,0,0,1,24-34.5,107.68,107.68,0,0,1,36.3-22.65,125.68,125.68,0,0,1,45.15-8q27.3,0,49.5,9.45a95.9,95.9,0,0,1,37.2,27.75l-31.5,28.8a71.31,71.31,0,0,0-23.85-18.6,67,67,0,0,0-28.95-6.3,71.68,71.68,0,0,0-27,4.95,62.37,62.37,0,0,0-35.25,35.25,77.76,77.76,0,0,0,0,54.6,62.37,62.37,0,0,0,35.25,35.25,71.68,71.68,0,0,0,27,5,65.66,65.66,0,0,0,28.95-6.45,73.11,73.11,0,0,0,23.85-18.75l31.5,28.8A97.25,97.25,0,0,1,2576,569Q2553.78,578.6,2526.18,578.6Z" transform="translate(0 0)"/><path d="M2648.57,575V365h90.9q28.2,0,48.6,9.15t31.5,26.25q11.1,17.1,11.1,40.5,0,23.7-11.1,40.65t-31.5,25.8q-20.4,8.85-48.6,8.85h-64.2l22.2-21V575Zm48.9-74.4-22.2-23.1h61.5q22.2,0,33.6-9.6t11.4-27q0-17.4-11.4-26.85t-33.6-9.45h-61.5l22.2-23.1Zm84.9,74.4-52.8-76.2h52.2l52.8,76.2Z" transform="translate(0 0)"/><path d="M2844.47,575l93.3-210h48L3080,575h-51l-77.1-185.4h19.5L2894.27,575Zm47.1-45,12.3-36.9h108.6l12.6,36.9Z" transform="translate(0 0)"/><path d="M3148.37,575V404.6h-67.2V365h183v39.6H3197V575Z" transform="translate(0 0)"/><path d="M3293.27,575V365h48.9V575Z" transform="translate(0 0)"/><path d="M3495.16,578.6a125.9,125.9,0,0,1-45.15-8,104.85,104.85,0,0,1-60-57.15,114.93,114.93,0,0,1,0-87,104,104,0,0,1,24-34.5,107.68,107.68,0,0,1,36.3-22.65,125.68,125.68,0,0,1,45.15-8q27.3,0,49.5,9.45a95.9,95.9,0,0,1,37.2,27.75l-31.5,28.8a71.31,71.31,0,0,0-23.85-18.6,67,67,0,0,0-28.95-6.3,71.68,71.68,0,0,0-27,4.95,62.37,62.37,0,0,0-35.25,35.25,77.76,77.76,0,0,0,0,54.6,62.37,62.37,0,0,0,35.25,35.25,71.68,71.68,0,0,0,27,5,65.66,65.66,0,0,0,28.95-6.45,73.11,73.11,0,0,0,23.85-18.75l31.5,28.8A97.25,97.25,0,0,1,3545,569Q3522.76,578.6,3495.16,578.6Z" transform="translate(0 0)"/><path d="M1525.39,898.6a125.9,125.9,0,0,1-45.15-8,104.85,104.85,0,0,1-60-57.15,114.93,114.93,0,0,1,0-87,104,104,0,0,1,24-34.5,107.68,107.68,0,0,1,36.3-22.65,125.68,125.68,0,0,1,45.15-8q27.3,0,49.5,9.45a95.9,95.9,0,0,1,37.2,27.75l-31.5,28.8A71.31,71.31,0,0,0,1557,728.8a67,67,0,0,0-29-6.3,71.68,71.68,0,0,0-27,5,62.37,62.37,0,0,0-35.25,35.25,77.76,77.76,0,0,0,0,54.6,62.37,62.37,0,0,0,35.25,35.25,71.68,71.68,0,0,0,27,5,65.66,65.66,0,0,0,29-6.45,73.11,73.11,0,0,0,23.85-18.75l31.5,28.8a97.25,97.25,0,0,1-37.2,27.9Q1553,898.59,1525.39,898.6Z" transform="translate(0 0)"/><path d="M1749.49,898.6a125.57,125.57,0,0,1-45.6-8.1,110.77,110.77,0,0,1-36.6-22.8,102.87,102.87,0,0,1-24.15-34.5,107.81,107.81,0,0,1-8.55-43.2q0-23.7,8.55-43.35a103.27,103.27,0,0,1,24.15-34.35,111.12,111.12,0,0,1,36.45-22.8q20.84-8.1,45.75-8.1a127.5,127.5,0,0,1,45.75,8A109.53,109.53,0,0,1,1831.69,712a103.15,103.15,0,0,1,24.15,34.5,114.55,114.55,0,0,1,0,86.85A102.76,102.76,0,0,1,1831.69,868a109.53,109.53,0,0,1-36.45,22.65A127.71,127.71,0,0,1,1749.49,898.6Zm0-41.1a66.73,66.73,0,0,0,26-5,63.15,63.15,0,0,0,20.85-14.1,65,65,0,0,0,14-21.3,76.93,76.93,0,0,0,0-54.3,65,65,0,0,0-14-21.3,63.15,63.15,0,0,0-20.85-14.1,66.73,66.73,0,0,0-26-5,67.71,67.71,0,0,0-26.1,5,60.87,60.87,0,0,0-20.85,14.1,66.11,66.11,0,0,0-13.8,21.3,76.93,76.93,0,0,0,0,54.3,66.11,66.11,0,0,0,13.8,21.3,60.87,60.87,0,0,0,20.85,14.1A67.71,67.71,0,0,0,1749.49,857.5Z" transform="translate(0 0)"/><path d="M1904,895V685h40.19l89.4,148.2h-21.3l87.6-148.2h40.5V895h-45.3l-.59-140.1h9l-70.81,117.6h-21.6l-71.7-117.6h9.9V895Z" transform="translate(0 0)"/><path d="M2193.48,895V685h40.2l89.4,148.2h-21.3l87.6-148.2h40.5V895h-45.3l-.6-140.1h9l-70.8,117.6h-21.6l-71.7-117.6h9.9V895Z" transform="translate(0 0)"/><path d="M2483,895V685h48.9V895Z" transform="translate(0 0)"/><path d="M2627.87,895V724.6h-67.2V685h183v39.6h-67.2V895Z" transform="translate(0 0)"/><path d="M2816.27,895V724.6h-67.2V685h183v39.6h-67.2V895Z" transform="translate(0 0)"/><path d="M3009.47,856h114.3v39h-162.6V685h158.7v39h-110.4Zm-3.6-86.7H3107v38.1h-101.1Z" transform="translate(0 0)"/><path d="M3213.77,856h114.3v39h-162.6V685h158.7v39h-110.4Zm-3.6-86.7h101.1v38.1h-101.1Z" transform="translate(0 0)"/><rect x="1399.99" y="1088.26" width="2193" height="100"/></svg>