<?xml version="1.0" standalone="no"?>
<!DOCTYPE svg PUBLIC "-//W3C//DTD SVG 20010904//EN"
 "http://www.w3.org/TR/2001/REC-SVG-20010904/DTD/svg10.dtd">
<svg version="1.0" xmlns="http://www.w3.org/2000/svg"
 width="1223.000000pt" height="1223.000000pt" viewBox="0 0 1223.000000 1223.000000"
 preserveAspectRatio="xMidYMid meet">
<metadata>
Created by potrace 1.14, written by Peter Selinger 2001-2017
</metadata>
<g transform="translate(0.000000,1223.000000) scale(0.100000,-0.100000)"
fill="#000000" stroke="none">
<path d="M2114 12045 c-16 -7 -40 -23 -53 -35 -49 -48 -153 -228 -202 -352
-11 -28 -28 -70 -39 -92 -22 -50 -140 -376 -168 -466 -11 -36 -37 -117 -57
-180 -41 -130 -159 -538 -170 -587 -3 -18 -10 -33 -14 -33 -4 0 -34 28 -67 63
-242 252 -435 590 -573 1004 -42 127 -94 308 -107 377 -2 12 -9 45 -15 73
l-10 53 -37 -15 c-188 -79 -330 -364 -369 -740 -17 -170 -9 -479 16 -640 6
-33 12 -77 16 -99 9 -66 53 -229 86 -322 59 -168 151 -327 232 -404 l34 -32
-51 -101 c-45 -89 -108 -251 -121 -312 -2 -11 -8 -35 -14 -52 -5 -18 -8 -33
-6 -33 3 0 1 -10 -4 -23 -5 -13 -12 -48 -16 -78 -4 -30 -9 -57 -10 -60 -7 -10
-18 -183 -19 -274 0 -93 9 -237 20 -305 6 -34 0 -49 -38 -117 -129 -225 -267
-552 -313 -745 -38 -159 -44 -212 -40 -363 3 -155 20 -229 78 -340 39 -73 145
-181 211 -215 l49 -25 405 0 c258 0 412 3 423 10 20 11 612 443 632 461 7 5
41 31 77 57 73 54 79 54 208 10 230 -78 466 -285 668 -588 33 -49 63 -97 67
-105 4 -8 20 -37 37 -65 44 -75 152 -296 203 -416 96 -226 252 -701 291 -889
3 -14 12 -54 21 -90 9 -36 18 -73 20 -83 2 -10 6 -26 9 -35 3 -9 7 -34 11 -56
3 -21 7 -41 9 -45 2 -3 7 -22 10 -41 3 -19 16 -94 30 -166 14 -72 27 -150 30
-175 3 -24 8 -55 10 -69 2 -14 7 -47 11 -73 4 -27 8 -56 10 -65 1 -10 6 -48 9
-87 4 -38 9 -77 11 -85 2 -8 7 -53 10 -100 4 -47 8 -98 10 -115 9 -68 18 -322
18 -495 1 -167 -10 -407 -18 -420 -2 -3 -6 -34 -9 -69 -22 -218 -102 -441
-185 -513 -41 -36 -56 -66 -78 -158 -16 -69 -18 -81 -30 -175 -13 -109 -7
-413 9 -461 2 -5 -23 -46 -55 -91 -31 -44 -57 -86 -57 -91 0 -6 -4 -12 -9 -14
-25 -9 -179 -314 -221 -438 -61 -180 -82 -364 -54 -461 29 -98 158 -174 334
-197 115 -15 477 -7 610 13 14 2 45 7 70 10 67 9 103 15 120 20 8 2 38 7 65
11 56 7 58 8 60 32 3 31 16 176 21 237 3 33 7 76 9 95 2 19 7 78 11 130 4 52
8 104 10 115 1 11 3 37 3 58 1 20 6 37 11 37 6 0 112 -81 236 -181 255 -205
222 -194 303 -105 76 83 171 186 291 315 58 63 116 125 129 140 13 14 72 77
130 140 58 62 109 119 113 125 4 7 -42 61 -111 131 -278 284 -456 551 -578
870 -33 87 -81 258 -89 320 -2 17 -6 41 -9 55 -24 114 -23 400 1 550 54 335
192 662 409 970 64 91 72 102 122 159 18 20 33 39 33 42 0 4 118 6 263 6 222
-1 458 7 516 18 9 1 48 6 86 9 39 4 81 9 95 11 80 11 110 15 150 20 38 5 246
41 345 60 24 5 204 44 275 60 8 2 58 15 110 30 52 14 103 28 114 30 10 2 43
11 72 20 30 9 56 16 59 16 2 0 34 11 69 23 l65 23 25 -26 c13 -14 53 -62 88
-107 389 -497 567 -913 571 -1334 0 -45 -13 -242 -18 -260 -1 -3 -5 -30 -9
-60 -5 -30 -10 -64 -13 -75 -2 -11 -7 -39 -12 -62 -10 -49 -11 -50 -131 -203
-168 -213 -511 -707 -696 -1002 -16 -26 -67 -108 -114 -183 -47 -74 -92 -148
-101 -163 -9 -15 -48 -79 -86 -142 -95 -158 -115 -209 -119 -299 -3 -62 1 -81
21 -121 42 -83 120 -133 265 -171 186 -48 471 -24 639 54 95 43 106 58 217
276 139 277 191 371 279 509 115 180 196 269 316 348 38 24 80 57 94 72 79 84
130 299 100 422 -20 84 -16 260 9 375 17 78 72 188 132 261 72 88 111 120 359
289 88 60 168 118 177 129 34 40 138 262 157 336 57 215 44 416 -36 560 -56
100 -61 112 -66 154 -6 46 15 101 44 116 50 27 131 -72 232 -283 32 -64 57
-123 57 -130 0 -7 4 -17 9 -22 8 -9 94 -221 190 -471 44 -114 60 -215 76 -474
11 -166 5 -514 -10 -665 -3 -27 -7 -72 -10 -100 -6 -70 -24 -211 -31 -250 -2
-11 -7 -40 -10 -64 -3 -24 -22 -110 -41 -190 -19 -80 -39 -173 -44 -206 -40
-260 -155 -464 -453 -800 -49 -55 -106 -123 -127 -151 -37 -48 -39 -54 -34
-104 12 -121 59 -222 142 -302 66 -65 96 -81 137 -74 17 3 72 8 121 11 50 3
104 8 120 10 17 2 66 6 110 10 44 3 96 8 115 10 44 5 268 23 302 24 16 1 139
138 224 249 24 32 47 62 52 67 97 119 278 398 349 538 57 113 70 181 99 502 3
39 8 88 10 110 2 22 6 69 9 105 10 122 15 182 30 333 17 160 20 191 30 267 6
37 8 57 19 129 8 51 48 206 56 216 20 24 60 168 74 266 19 127 22 367 6 464
-19 118 -30 144 -146 342 -30 50 -70 124 -89 165 -66 139 -98 363 -98 673 1
139 4 191 17 290 13 93 51 172 78 163 6 -2 59 -67 118 -143 l106 -139 -14 -41
c-8 -22 -16 -49 -18 -60 -44 -205 -11 -347 106 -466 55 -55 169 -139 190 -139
6 0 32 -21 59 -48 69 -69 115 -169 226 -492 80 -232 130 -321 189 -336 87 -21
129 107 170 516 3 30 11 98 17 150 23 183 17 354 -16 522 -3 15 -17 60 -31
100 -82 227 -189 338 -379 393 -63 18 -156 24 -191 12 -18 -6 -30 3 -75 60
-124 158 -286 443 -342 603 l-23 64 34 111 c18 60 35 117 37 125 1 8 8 35 15
60 7 25 14 52 15 60 2 8 9 38 15 65 6 28 13 59 16 70 18 92 34 175 39 203 3
17 7 47 10 65 3 17 7 43 10 57 2 14 7 52 11 85 3 33 8 68 10 78 21 116 21 610
0 724 -2 11 -7 44 -11 73 -4 29 -9 62 -11 74 -3 12 -7 39 -10 61 -4 22 -21 95
-40 161 -108 395 -287 709 -557 975 -290 286 -669 491 -1024 553 -252 45 -675
38 -948 -14 -27 -5 -61 -11 -75 -14 -87 -14 -108 -19 -135 -27 -16 -4 -45 -11
-63 -14 -18 -3 -81 -28 -140 -56 -59 -28 -161 -75 -227 -105 -66 -30 -131 -61
-145 -68 -38 -21 -356 -156 -520 -221 -122 -48 -470 -169 -520 -180 -8 -2 -40
-10 -70 -19 -88 -23 -290 -64 -355 -71 -33 -4 -69 -9 -80 -12 -11 -2 -96 -6
-190 -8 -178 -3 -297 6 -425 31 -14 2 -38 7 -55 10 -122 22 -358 97 -578 185
-190 76 -505 218 -515 233 -6 10 -58 59 -187 176 -28 25 -77 68 -110 95 -33
28 -66 56 -73 63 -8 7 -30 25 -50 40 -21 15 -43 33 -50 39 -33 32 -290 218
-412 300 -432 288 -921 533 -1375 688 -60 20 -111 39 -113 40 -2 2 -5 142 -7
312 -4 291 -10 497 -20 643 -2 36 -7 108 -10 160 -4 52 -8 106 -10 120 -2 14
-7 50 -10 80 -8 85 -14 126 -26 177 -6 27 -13 58 -15 69 -7 38 -33 91 -47 97
-7 3 -26 -1 -43 -8z"/>
</g>
</svg>
