<?xml version="1.0" encoding="utf-8"?>
<!-- Generator: Adobe Illustrator 23.1.1, SVG Export Plug-In . SVG Version: 6.00 Build 0)  -->
<svg version="1.1" id="Layer_1" xmlns="http://www.w3.org/2000/svg" xmlns:xlink="http://www.w3.org/1999/xlink" x="0px" y="0px"
	 viewBox="0 0 6839.4 1188.3" style="enable-background:new 0 0 6839.4 1188.3;" xml:space="preserve">
<path d="M991.3,1037.3c-3.3,48.7-46.5,81.9-61.8,104.2c-0.9,17.8,8.3,34.6,23.8,43.5l82.2-7.1c24.8-26.3,59.9-76.3,65.9-96.4
	s9.3-131.7,20.7-155.4s10.2-63.1,6.7-78.7s-16.2-28.3-25.1-50.2s-11.5-109.8,3.4-107.2l21.7,28.5c-16.2,44.1,8.4,60.8,28.5,72
	s28.3,79.4,44.3,86s16.4-49.5,21-79.2c2.1-36.1-9.5-71.8-31.8-83.7c-25.3-11.5-33.5-5-33.5-5s-29.8-35.2-41.9-73.7
	c83.3-266.4-81.9-349.7-143.9-360s-127.4,8.4-127.4,8.4c-199.1,96.1-245.3,88.4-375,28.4C378.4,223.2,281.6,182.4,229.6,166
	c0,0,1-148.7-13.4-165.8c-26.9-8.1-74.7,175.8-74.7,175.8S85.4,131.6,63.9,18.7C6,36.7,11.2,200,62.2,243.9
	c0,0-34.3,49.4-21.8,127.3c-87.9,151.5-5,176.6-5,176.6h80.3l78.7-57.8c149,24.3,200.1,457.1,139,491.4c-13.9,37-5.7,77.7-5.7,77.7
	s-44,55.1-41.2,101.5c0.3,47,126.7,19.8,126.7,19.8l6.1-70.6l47.2,37.7l74.5-80.7c-170.2-158-21.8-310-21.8-310
	c111.3,7.5,221-31.5,221-31.5c80.6,95.1,71.6,149,62,197.6c-38.7,47.4-78.1,108.5-116.1,171.4c-41.7,69.2,89.3,62.9,98.6,34.2
	c40.2-83.3,54.3-93.4,71.1-103.4c16.7-10.1,16.7-40.2,16.7-40.2c-12.3-55.8,18.9-78.8,33.5-88.7l31.8-21.8
	c28.1-40.9,22.5-78.1,11.7-93.8c-12.3-18.6,0-25.1,0-25.1c13-1.7,30.5,44.8,51.9,100.5C1011.4,912.3,1005.1,994.5,991.3,1037.3z"/>
<g>
	<g>
		<path d="M1538.4,721.2v-301h130.3c26.9,0,50.2,4.4,69.7,13.1c19.5,8.7,34.5,21.3,45.2,37.6c10.6,16.3,15.9,35.7,15.9,58
			c0,22.6-5.3,42.1-15.9,58.3c-10.6,16.2-25.7,28.7-45.2,37.6c-19.5,8.9-42.7,13.3-69.7,13.3h-92l31.8-31.4v114.4H1538.4z
			 M1608.5,614.6l-31.8-33.1h88.2c21.2,0,37.3-4.6,48.2-13.8c10.9-9.2,16.3-22.1,16.3-38.7c0-16.6-5.4-29.5-16.3-38.5
			c-10.9-9-26.9-13.5-48.2-13.5h-88.2l31.8-33.1V614.6z"/>
		<path d="M1817.9,721.2l133.7-301h68.8l135,301h-73.1l-110.5-265.7h27.9l-110.5,265.7H1817.9z M1885.4,656.7l17.6-52.9h155.7
			l18.1,52.9H1885.4z"/>
		<path d="M2263.8,721.2l-98.9-301h72.2l85.6,266.6h-36.1l89.4-266.6h64.5l86,266.6h-34.8l87.7-266.6h66.6l-98.9,301h-74
			l-76.5-233.9h19.8l-78.3,233.9H2263.8z"/>
		<path d="M2695.5,721.2v-301h70.1v244.2h150.1v56.8H2695.5z"/>
		<path d="M2959.6,721.2v-301h70.1v301H2959.6z"/>
		<path d="M3104.9,721.2v-301h57.6l177.6,216.7h-28V420.2h68.8v301h-57.6l-177.6-216.7h28v216.7H3104.9z"/>
		<path d="M3602,726.4c-23.8,0-45.7-3.8-65.8-11.4c-20.1-7.6-37.4-18.4-52-32.5c-14.6-14-26-30.5-34.2-49.5s-12.3-39.7-12.3-62.3
			c0-22.6,4.1-43.4,12.3-62.4s19.7-35.4,34.6-49.4c14.9-14,32.4-24.9,52.5-32.5c20.1-7.6,42.1-11.4,66.2-11.4
			c26.7,0,50.7,4.4,72,13.3c21.4,8.9,39.3,21.8,54,38.7l-44.3,41.3c-11.2-11.8-23.2-20.4-36.1-26c-12.9-5.6-27.1-8.4-42.6-8.4
			c-14.3,0-27.5,2.4-39.6,7.1c-12,4.7-22.4,11.4-31.2,20c-8.7,8.6-15.5,18.8-20.2,30.5c-4.7,11.8-7.1,24.8-7.1,39.1
			c0,13.8,2.4,26.6,7.1,38.5c4.7,11.9,11.5,22.1,20.2,30.7c8.7,8.6,19.1,15.3,31,20.2c11.9,4.9,25,7.3,39.3,7.3
			c13.8,0,27.2-2.3,40.2-6.9c13-4.6,25.7-12.2,38.1-22.8l39.6,50.3c-16.6,12.6-35.7,22.1-57.2,28.6
			C3645,723.1,3623.5,726.4,3602,726.4z M3660,679.1V566h63.6v122.1L3660,679.1z"/>
		<path d="M3918.4,721.2v-301h136.7c32.7,0,61.5,6.2,86.4,18.7c24.9,12.5,44.4,30,58.5,52.5c14,22.5,21.1,49,21.1,79.3
			c0,30.4-7,56.8-21.1,79.3c-14,22.5-33.5,40-58.5,52.5c-24.9,12.5-53.7,18.7-86.4,18.7H3918.4z M3988.5,664.4h63.2
			c20.1,0,37.5-3.8,52.2-11.4c14.8-7.6,26.2-18.5,34.4-32.7c8.2-14.2,12.3-30.7,12.3-49.7c0-19.2-4.1-35.8-12.3-49.9
			c-8.2-14-19.6-24.9-34.4-32.5c-14.8-7.6-32.2-11.4-52.2-11.4h-63.2V664.4z"/>
		<path d="M4347.2,665.3H4511v55.9h-233.1v-301h227.5v55.9h-158.2V665.3z M4342,541h144.9v54.6H4342V541z"/>
		<path d="M4570.7,721.2v-301h57.6l128.1,212.4H4726l125.6-212.4h58v301h-64.9l-0.9-200.8h12.9l-101.5,168.6h-31l-102.8-168.6h14.2
			v200.8H4570.7z"/>
		<path d="M5131.5,726.4c-23.5,0-45.3-3.9-65.4-11.6c-20.1-7.7-37.6-18.6-52.5-32.7c-14.9-14-26.4-30.5-34.6-49.5
			s-12.3-39.6-12.3-61.9c0-22.6,4.1-43.4,12.3-62.1c8.2-18.8,19.7-35.2,34.6-49.2c14.9-14,32.3-24.9,52.2-32.7
			c19.9-7.7,41.8-11.6,65.6-11.6c23.8,0,45.6,3.8,65.6,11.4c19.9,7.6,37.3,18.4,52.2,32.5c14.9,14,26.4,30.5,34.6,49.4
			c8.2,18.9,12.3,39.7,12.3,62.4c0,22.4-4.1,43.1-12.3,62.1c-8.2,19.1-19.7,35.6-34.6,49.7c-14.9,14-32.3,24.9-52.2,32.5
			C5177.1,722.6,5155.3,726.4,5131.5,726.4z M5131.5,667.4c13.5,0,25.9-2.4,37.2-7.1c11.3-4.7,21.3-11.5,29.9-20.2
			c8.6-8.7,15.3-18.9,20-30.5c4.7-11.6,7.1-24.6,7.1-38.9c0-14.3-2.4-27.3-7.1-38.9c-4.7-11.6-11.4-21.8-20-30.5
			c-8.6-8.7-18.6-15.5-29.9-20.2c-11.3-4.7-23.7-7.1-37.2-7.1c-13.5,0-25.9,2.4-37.4,7.1c-11.5,4.7-21.4,11.5-29.9,20.2
			c-8.5,8.7-15,18.9-19.8,30.5c-4.7,11.6-7.1,24.6-7.1,38.9c0,14.3,2.4,27.3,7.1,38.9c4.7,11.6,11.3,21.8,19.8,30.5
			c8.5,8.7,18.4,15.5,29.9,20.2C5105.5,665.1,5118,667.4,5131.5,667.4z"/>
		<path d="M5497,726.4c-23.2,0-44.8-3.8-64.7-11.4c-19.9-7.6-37.2-18.4-51.8-32.5c-14.6-14-26-30.5-34.2-49.5s-12.3-39.7-12.3-62.3
			c0-22.6,4.1-43.4,12.3-62.4s19.6-35.4,34.4-49.4c14.8-14,32.1-24.9,52-32.5c19.9-7.6,41.5-11.4,64.7-11.4c26.1,0,49.7,4.5,71,13.5
			c21.2,9,39,22.3,53.3,39.8l-45.2,41.3c-10-11.8-21.4-20.6-34.2-26.7c-12.8-6-26.6-9-41.5-9c-14,0-26.9,2.4-38.7,7.1
			c-11.8,4.7-21.9,11.4-30.5,20c-8.6,8.6-15.3,18.8-20,30.5c-4.7,11.8-7.1,24.8-7.1,39.1c0,14.3,2.4,27.4,7.1,39.1
			c4.7,11.8,11.4,21.9,20,30.5c8.6,8.6,18.8,15.3,30.5,20c11.8,4.7,24.7,7.1,38.7,7.1c14.9,0,28.7-3.1,41.5-9.2
			c12.8-6.2,24.1-15.1,34.2-26.9l45.2,41.3c-14.3,17.5-32.1,30.8-53.3,40C5547.1,721.8,5523.3,726.4,5497,726.4z"/>
		<path d="M5672.4,721.2v-301h130.3c26.9,0,50.2,4.4,69.7,13.1c19.5,8.7,34.5,21.3,45.2,37.6c10.6,16.3,15.9,35.7,15.9,58
			c0,22.6-5.3,42.1-15.9,58.3c-10.6,16.2-25.7,28.5-45.2,37c-19.5,8.5-42.7,12.7-69.7,12.7h-92l31.8-30.1v114.4H5672.4z
			 M5742.5,614.6l-31.8-33.1h88.2c21.2,0,37.3-4.6,48.2-13.8c10.9-9.2,16.3-22.1,16.3-38.7c0-16.6-5.4-29.5-16.3-38.5
			c-10.9-9-26.9-13.5-48.2-13.5h-88.2l31.8-33.1V614.6z M5864.2,721.2L5788.5,612h74.8l75.7,109.2H5864.2z"/>
		<path d="M5953.2,721.2l133.7-301h68.8l135,301h-73.1l-110.5-265.7h27.9l-110.5,265.7H5953.2z M6020.7,656.7l17.6-52.9H6194
			l18.1,52.9H6020.7z"/>
		<path d="M6388.8,721.2V477h-96.3v-56.8h262.3V477h-96.3v244.2H6388.8z"/>
		<path d="M6695.8,726.4c-24.1,0-47.2-3.2-69.4-9.7c-22.2-6.4-40.1-14.8-53.5-25.2l23.7-52.5c12.6,9.2,27.8,16.7,45.6,22.6
			c17.8,5.9,35.7,8.8,53.8,8.8c13.8,0,24.9-1.4,33.3-4.3c8.5-2.9,14.7-6.7,18.7-11.4c4-4.7,6-10.2,6-16.6c0-8-3.2-14.4-9.5-19.1
			c-6.3-4.7-14.7-8.6-25.2-11.6c-10.5-3-21.9-5.9-34.2-8.6c-12.3-2.7-24.7-6-37.2-9.9s-23.9-9-34.4-15.5
			c-10.5-6.4-18.8-14.9-24.9-25.4c-6.2-10.5-9.2-23.6-9.2-39.3c0-17.2,4.6-32.9,13.8-47.1c9.2-14.2,23.1-25.5,41.9-34
			c18.8-8.5,42.4-12.7,70.7-12.7c18.9,0,37.6,2.3,56.1,6.9c18.5,4.6,34.6,11.2,48.4,19.8l-21.9,52.5c-13.5-7.7-27.4-13.5-41.7-17.4
			c-14.3-3.9-28.1-5.8-41.3-5.8c-13.8,0-24.8,1.5-33.1,4.5c-8.3,3-14.4,7.1-18.3,12.3c-3.9,5.2-5.8,10.9-5.8,17.2
			c0,8,3.2,14.5,9.5,19.4c6.3,4.9,14.6,8.7,24.9,11.4c10.3,2.7,21.8,5.4,34.4,8.2c12.6,2.7,25.1,6.1,37.4,10.1
			c12.3,4,23.7,9.1,34,15.3c10.3,6.2,18.7,14.5,25.2,24.9c6.5,10.5,9.7,23.4,9.7,38.9c0,16.9-4.7,32.4-14,46.4
			c-9.3,14-23.4,25.4-42.4,34S6724.2,726.4,6695.8,726.4z"/>
	</g>
</g>
</svg>
