<?xml version="1.0" encoding="utf-8"?>
<!-- Generator: Adobe Illustrator 23.1.1, SVG Export Plug-In . SVG Version: 6.00 Build 0)  -->
<svg version="1.1" id="Layer_1" xmlns="http://www.w3.org/2000/svg" xmlns:xlink="http://www.w3.org/1999/xlink" x="0px" y="0px"
	 viewBox="0 0 3593 1188.3" style="enable-background:new 0 0 3593 1188.3;" xml:space="preserve">
<path d="M991.3,1037.3c-3.3,48.7-46.5,81.9-61.8,104.2c-0.9,17.8,8.3,34.6,23.8,43.5l82.2-7.1c24.8-26.3,59.9-76.3,65.9-96.4
	s9.3-131.7,20.7-155.3s10.2-63.1,6.7-78.7s-16.2-28.3-25.1-50.2s-11.5-109.8,3.4-107.2l21.7,28.5c-16.2,44.1,8.4,60.8,28.5,72
	s28.3,79.4,44.3,86s16.4-49.5,21-79.2c2.1-36.1-9.5-71.8-31.8-83.7c-25.3-11.5-33.5-5-33.5-5s-29.8-35.2-41.9-73.7
	c83.3-266.4-81.9-349.7-143.9-360c-62-10.3-127.4,8.4-127.4,8.4c-199.1,96.1-245.3,88.4-375,28.4C378.4,223.2,281.6,182.4,229.6,166
	c0,0,1-148.7-13.4-165.8c-26.9-8.1-74.7,175.8-74.7,175.8S85.4,131.6,63.9,18.7C6,36.7,11.2,200,62.2,243.9
	c0,0-34.3,49.4-21.8,127.3c-87.9,151.5-5,176.7-5,176.7h80.3l78.7-57.8c149,24.3,200.1,457.1,139,491.4c-13.9,37-5.7,77.7-5.7,77.7
	s-44,55.1-41.2,101.5c0.3,47,126.7,19.8,126.7,19.8l6.1-70.6l47.2,37.7l74.5-80.7c-170.2-158-21.8-310-21.8-310
	c111.3,7.5,221-31.5,221-31.5c80.6,95.1,71.6,149,62,197.6c-38.7,47.4-78.1,108.5-116.1,171.3c-41.7,69.2,89.3,62.9,98.6,34.2
	c40.2-83.3,54.3-93.4,71.1-103.4c16.7-10.1,16.7-40.2,16.7-40.2c-12.3-55.8,18.9-78.8,33.5-88.7l31.8-21.8
	c28.1-40.9,22.5-78.1,11.7-93.8c-12.3-18.6,0-25.1,0-25.1c13-1.7,30.5,44.8,51.9,100.5C1011.4,912.3,1005.1,994.5,991.3,1037.3z"/>
<g>
	<g>
		<path d="M1424.9,255V45h90.9c18.8,0,35,3.1,48.6,9.1c13.6,6.1,24.1,14.9,31.5,26.2c7.4,11.4,11.1,24.9,11.1,40.5
			c0,15.8-3.7,29.4-11.1,40.6c-7.4,11.3-17.9,20.1-31.5,26.2c-13.6,6.2-29.8,9.3-48.6,9.3h-64.2l22.2-21.9V255H1424.9z
			 M1473.8,180.6l-22.2-23.1h61.5c14.8,0,26-3.2,33.6-9.6c7.6-6.4,11.4-15.4,11.4-27c0-11.6-3.8-20.5-11.4-26.9
			c-7.6-6.3-18.8-9.4-33.6-9.4h-61.5l22.2-23.1V180.6z"/>
		<path d="M1619.9,255l93.3-210h48l94.2,210h-51l-77.1-185.4h19.5L1669.7,255H1619.9z M1667,210l12.3-36.9h108.6l12.6,36.9H1667z"/>
		<path d="M1931,255l-69-210h50.4l59.7,186h-25.2l62.4-186h45l60,186H2090l61.2-186h46.5l-69,210h-51.6l-53.4-163.2h13.8L1982.9,255
			H1931z"/>
		<path d="M2232.2,255V45h48.9v170.4h104.7V255H2232.2z"/>
		<path d="M2416.4,255V45h48.9v210H2416.4z"/>
		<path d="M2517.8,255V45h40.2l123.9,151.2h-19.5V45h48v210h-40.2l-123.9-151.2h19.5V255H2517.8z"/>
		<path d="M2864.6,258.6c-16.6,0-31.9-2.7-45.9-8c-14-5.3-26.1-12.8-36.3-22.6c-10.2-9.8-18.1-21.3-23.8-34.5s-8.5-27.7-8.5-43.5
			c0-15.8,2.8-30.3,8.5-43.5s13.7-24.7,24.2-34.5c10.4-9.8,22.6-17.3,36.6-22.6c14-5.3,29.4-8,46.2-8c18.6,0,35.3,3.1,50.2,9.3
			c14.9,6.2,27.5,15.2,37.6,27l-30.9,28.8c-7.8-8.2-16.2-14.2-25.2-18.1s-18.9-5.9-29.7-5.9c-10,0-19.2,1.6-27.6,5
			c-8.4,3.3-15.7,7.9-21.8,13.9c-6.1,6-10.8,13.1-14.1,21.3c-3.3,8.2-4.9,17.3-4.9,27.3c0,9.6,1.6,18.6,4.9,26.9
			c3.3,8.3,8,15.4,14.1,21.4c6.1,6,13.3,10.7,21.6,14.1c8.3,3.4,17.4,5.1,27.5,5.1c9.6,0,18.9-1.6,28-4.8
			c9.1-3.2,17.9-8.5,26.5-15.9l27.6,35.1c-11.6,8.8-24.9,15.5-39.9,20S2879.6,258.6,2864.6,258.6z M2905.1,225.6v-78.9h44.4v85.2
			L2905.1,225.6z"/>
		<path d="M1424.9,575V365h95.4c22.8,0,42.9,4.4,60.3,13c17.4,8.7,31,20.9,40.8,36.6c9.8,15.7,14.7,34.2,14.7,55.4
			c0,21.2-4.9,39.7-14.7,55.4c-9.8,15.7-23.4,27.9-40.8,36.6c-17.4,8.7-37.5,13-60.3,13H1424.9z M1473.8,535.4h44.1
			c14,0,26.1-2.6,36.4-7.9c10.3-5.3,18.3-12.9,24-22.8c5.7-9.9,8.6-21.4,8.6-34.6c0-13.4-2.9-25-8.6-34.8
			c-5.7-9.8-13.7-17.3-24-22.7c-10.3-5.3-22.5-7.9-36.4-7.9h-44.1V535.4z"/>
		<path d="M1724,536h114.3v39h-162.6V365h158.7v39H1724V536z M1720.4,449.3h101.1v38.1h-101.1V449.3z"/>
		<path d="M1880,575V365h40.2l89.4,148.2h-21.3l87.6-148.2h40.5v210h-45.3l-0.6-140.1h9l-70.8,117.6h-21.6l-71.7-117.6h9.9V575H1880
			z"/>
		<path d="M2271.2,578.6c-16.4,0-31.6-2.7-45.6-8.1c-14-5.4-26.2-13-36.6-22.8c-10.4-9.8-18.5-21.3-24.2-34.5
			c-5.7-13.2-8.5-27.6-8.5-43.2c0-15.8,2.8-30.2,8.5-43.4c5.7-13.1,13.7-24.5,24.2-34.4c10.4-9.8,22.5-17.4,36.4-22.8
			c13.9-5.4,29.1-8.1,45.8-8.1c16.6,0,31.8,2.7,45.8,8c13.9,5.3,26,12.9,36.5,22.6c10.4,9.8,18.5,21.3,24.2,34.5s8.5,27.7,8.5,43.5
			c0,15.6-2.8,30.1-8.5,43.4c-5.7,13.3-13.8,24.9-24.2,34.6c-10.4,9.8-22.6,17.4-36.5,22.6C2303,575.9,2287.8,578.6,2271.2,578.6z
			 M2271.2,537.5c9.4,0,18-1.6,26-5c7.9-3.3,14.9-8,20.9-14.1c6-6.1,10.6-13.2,13.9-21.3c3.3-8.1,5-17.1,5-27.1c0-10-1.6-19-5-27.1
			c-3.3-8.1-7.9-15.2-13.9-21.3c-6-6.1-13-10.8-20.9-14.1c-7.9-3.3-16.6-5-26-5c-9.4,0-18.1,1.6-26.1,5c-8,3.3-15,8-20.8,14.1
			c-5.9,6.1-10.5,13.2-13.8,21.3c-3.3,8.1-4.9,17.2-4.9,27.1c0,10,1.6,19,4.9,27.1c3.3,8.1,7.9,15.2,13.8,21.3
			c5.9,6.1,12.8,10.8,20.8,14.1C2253.1,535.8,2261.8,537.5,2271.2,537.5z"/>
		<path d="M2526.2,578.6c-16.2,0-31.3-2.7-45.2-8c-13.9-5.3-26-12.8-36.2-22.6c-10.2-9.8-18.1-21.3-23.8-34.5s-8.5-27.7-8.5-43.5
			c0-15.8,2.8-30.3,8.5-43.5s13.7-24.7,24-34.5c10.3-9.8,22.4-17.3,36.3-22.6c13.9-5.3,29-8,45.2-8c18.2,0,34.7,3.1,49.5,9.5
			c14.8,6.3,27.2,15.6,37.2,27.8l-31.5,28.8c-7-8.2-15-14.4-23.9-18.6c-8.9-4.2-18.6-6.3-29-6.3c-9.8,0-18.8,1.6-27,5
			c-8.2,3.3-15.3,7.9-21.3,13.9s-10.6,13.1-14,21.3c-3.3,8.2-4.9,17.3-4.9,27.3c0,10,1.6,19.1,4.9,27.3c3.3,8.2,8,15.3,14,21.3
			s13.1,10.6,21.3,13.9c8.2,3.3,17.2,5,27,5c10.4,0,20-2.1,29-6.5c8.9-4.3,16.8-10.5,23.9-18.8l31.5,28.8
			c-10,12.2-22.4,21.5-37.2,27.9C2561.2,575.4,2544.6,578.6,2526.2,578.6z"/>
		<path d="M2648.6,575V365h90.9c18.8,0,35,3.1,48.6,9.1c13.6,6.1,24.1,14.9,31.5,26.2c7.4,11.4,11.1,24.9,11.1,40.5
			c0,15.8-3.7,29.4-11.1,40.6c-7.4,11.3-17.9,19.9-31.5,25.8c-13.6,5.9-29.8,8.9-48.6,8.9h-64.2l22.2-21V575H2648.6z M2697.5,500.6
			l-22.2-23.1h61.5c14.8,0,26-3.2,33.6-9.6c7.6-6.4,11.4-15.4,11.4-27c0-11.6-3.8-20.5-11.4-26.9c-7.6-6.3-18.8-9.4-33.6-9.4h-61.5
			l22.2-23.1V500.6z M2782.4,575l-52.8-76.2h52.2l52.8,76.2H2782.4z"/>
		<path d="M2844.5,575l93.3-210h48l94.2,210h-51l-77.1-185.4h19.5L2894.3,575H2844.5z M2891.6,530l12.3-36.9h108.6l12.6,36.9H2891.6
			z"/>
		<path d="M3148.4,575V404.6h-67.2V365h183v39.6H3197V575H3148.4z"/>
		<path d="M3293.3,575V365h48.9v210H3293.3z"/>
		<path d="M3495.2,578.6c-16.2,0-31.3-2.7-45.2-8c-13.9-5.3-26-12.8-36.2-22.6c-10.2-9.8-18.1-21.3-23.8-34.5s-8.5-27.7-8.5-43.5
			c0-15.8,2.8-30.3,8.5-43.5s13.7-24.7,24-34.5c10.3-9.8,22.4-17.3,36.3-22.6c13.9-5.3,29-8,45.2-8c18.2,0,34.7,3.1,49.5,9.5
			c14.8,6.3,27.2,15.6,37.2,27.8l-31.5,28.8c-7-8.2-15-14.4-23.9-18.6c-8.9-4.2-18.6-6.3-29-6.3c-9.8,0-18.8,1.6-27,5
			c-8.2,3.3-15.3,7.9-21.3,13.9s-10.6,13.1-14,21.3c-3.3,8.2-4.9,17.3-4.9,27.3c0,10,1.6,19.1,4.9,27.3c3.3,8.2,8,15.3,14,21.3
			s13.1,10.6,21.3,13.9c8.2,3.3,17.2,5,27,5c10.4,0,20-2.1,29-6.5c8.9-4.3,16.8-10.5,23.9-18.8l31.5,28.8
			c-10,12.2-22.4,21.5-37.2,27.9C3530.2,575.4,3513.6,578.6,3495.2,578.6z"/>
		<path d="M1525.4,898.6c-16.2,0-31.3-2.7-45.2-7.9c-13.9-5.3-26-12.8-36.2-22.7c-10.2-9.8-18.1-21.3-23.8-34.5s-8.5-27.7-8.5-43.5
			c0-15.8,2.8-30.3,8.5-43.5s13.7-24.7,24-34.5c10.3-9.8,22.4-17.3,36.3-22.7c13.9-5.3,29-7.9,45.2-7.9c18.2,0,34.7,3.1,49.5,9.4
			c14.8,6.3,27.2,15.6,37.2,27.8l-31.5,28.8c-7-8.2-15-14.4-23.9-18.6c-8.9-4.2-18.6-6.3-29-6.3c-9.8,0-18.8,1.7-27,5
			c-8.2,3.3-15.3,8-21.3,14s-10.6,13.1-14,21.3c-3.3,8.2-4.9,17.3-4.9,27.3c0,10,1.6,19.1,4.9,27.3c3.3,8.2,8,15.3,14,21.3
			s13.1,10.7,21.3,14c8.2,3.3,17.2,5,27,5c10.4,0,20-2.1,29-6.5c8.9-4.3,16.8-10.5,23.9-18.8l31.5,28.8
			c-10,12.2-22.4,21.5-37.2,27.9C1560.4,895.4,1543.8,898.6,1525.4,898.6z"/>
		<path d="M1749.5,898.6c-16.4,0-31.6-2.7-45.6-8.1c-14-5.4-26.2-13-36.6-22.8c-10.4-9.8-18.5-21.3-24.2-34.5s-8.5-27.6-8.5-43.2
			c0-15.8,2.8-30.2,8.5-43.3c5.7-13.1,13.7-24.5,24.2-34.4c10.4-9.8,22.5-17.4,36.4-22.8c13.9-5.4,29.1-8.1,45.8-8.1
			c16.6,0,31.8,2.7,45.8,7.9c13.9,5.3,26,12.9,36.5,22.7c10.4,9.8,18.5,21.3,24.2,34.5s8.5,27.7,8.5,43.5c0,15.6-2.8,30.1-8.5,43.3
			c-5.7,13.3-13.8,24.9-24.2,34.7c-10.4,9.8-22.6,17.4-36.5,22.7C1781.3,895.9,1766.1,898.6,1749.5,898.6z M1749.5,857.5
			c9.4,0,18-1.7,26-5c7.9-3.3,14.9-8,20.9-14.1c6-6.1,10.6-13.2,13.9-21.3c3.3-8.1,5-17.1,5-27.2c0-10-1.6-19-5-27.2
			c-3.3-8.1-7.9-15.2-13.9-21.3c-6-6.1-13-10.8-20.9-14.1c-7.9-3.3-16.6-5-26-5c-9.4,0-18.1,1.7-26.1,5c-8,3.3-15,8-20.8,14.1
			c-5.9,6.1-10.5,13.2-13.8,21.3c-3.3,8.1-4.9,17.2-4.9,27.2c0,10,1.6,19,4.9,27.2c3.3,8.1,7.9,15.2,13.8,21.3
			c5.9,6.1,12.8,10.8,20.8,14.1C1731.4,855.8,1740.1,857.5,1749.5,857.5z"/>
		<path d="M1904,895V685h40.2l89.4,148.2h-21.3l87.6-148.2h40.5v210h-45.3l-0.6-140.1h9l-70.8,117.6h-21.6l-71.7-117.6h9.9V895H1904
			z"/>
		<path d="M2193.5,895V685h40.2l89.4,148.2h-21.3l87.6-148.2h40.5v210h-45.3l-0.6-140.1h9l-70.8,117.6h-21.6l-71.7-117.6h9.9V895
			H2193.5z"/>
		<path d="M2483,895V685h48.9v210H2483z"/>
		<path d="M2627.9,895V724.6h-67.2V685h183v39.6h-67.2V895H2627.9z"/>
		<path d="M2816.3,895V724.6h-67.2V685h183v39.6h-67.2V895H2816.3z"/>
		<path d="M3009.5,856h114.3v39h-162.6V685h158.7v39h-110.4V856z M3005.9,769.3H3107v38.1h-101.1V769.3z"/>
		<path d="M3213.8,856h114.3v39h-162.6V685h158.7v39h-110.4V856z M3210.2,769.3h101.1v38.1h-101.1V769.3z"/>
	</g>
</g>
<rect x="1400" y="1088.3" width="2193" height="100"/>
</svg>
